<?xml version="1.0" standalone="yes"?>

<svg version="1.1" viewBox="0.0 0.0 100.0 29.333333333333332" fill="none" stroke="none" stroke-linecap="square" stroke-miterlimit="10" xmlns="http://www.w3.org/2000/svg" xmlns:xlink="http://www.w3.org/1999/xlink"><clipPath id="p.0"><path d="m0 0l100.0 0l0 29.333334l-100.0 0l0 -29.333334z" clip-rule="nonzero"></path></clipPath><g clip-path="url(#p.0)"><path fill="#000000" fill-opacity="0.0" d="m0 0l100.0 0l0 29.333334l-100.0 0z" fill-rule="evenodd"></path><path fill="#000000" fill-opacity="0.0" d="m0 -5.27923l120.0 0l0 9.795276l-120.0 0z" fill-rule="evenodd"></path><path fill="#ffffff" d="m20.421875 5.2270184l0 19.09375l-5.75 0l0 -19.09375l5.75 0zm-9.4375 15.859375l2.78125 0l0 1.875l-1.375 1.359375l-4.046875 0l-3.109375 -3.109375l0 -7.609375l3.109375 -3.109375l5.421875 0l0 3.453125l-2.78125 0l0 7.140625zm12.1545105 -10.59375l5.765625 0l0 13.828125l-5.765625 0l0 -13.828125zm0 -5.390625l5.765625 0l0 3.671875l-5.765625 0l0 -3.671875zm19.577408 9.75l-3.0625 -4.484375l2.015625 -3.3125l6.171875 0l-5.125 7.796875zm-12.78125 9.46875l5.515625 -8.046875l3.078125 4.6875l-2.015625 3.359375l-6.578125 0zm18.15625 0l-6.28125 0l-11.515625 -17.265625l6.203125 0l11.59375 17.265625zm1.2015076 0l0 -13.828125l5.765625 0l0 13.828125l-5.765625 0zm9.015625 -10.375l-2.34375 0l0 -1.625l1.8125 -1.828125l4.453125 0l1.84375 1.859375l0 11.96875l-5.765625 0l0 -10.375zm9.03125 0l-2.34375 0l0 -1.59375l1.765625 -1.859375l3.515625 0l2.8125 2.84375l0 10.984375l-5.75 0l0 -10.375zm13.981796 10.375l-2.296875 0l-3.453125 -3.453125l0 -6.921875l3.453125 -3.453125l2.296875 0l0 13.828125zm0.921875 -5.546875l0 -2.40625l3.03125 0l0 -2.421875l-3.03125 0l0 -3.453125l4.875 0l3.453125 3.453125l0 4.828125l-8.328125 0zm0 5.546875l0 -3.234375l7.71875 0l0 1.5l-1.71875 1.734375l-6.0 0z" fill-rule="nonzero"></path></g></svg>

